<?xml version="1.0" encoding="UTF-8"?>
<svg width="32" height="32" viewBox="0 0 32 32" xmlns="http://www.w3.org/2000/svg">
  <!-- Background circle with gradient -->
  <defs>
    <radialGradient id="bg" cx="50%" cy="30%" r="70%">
      <stop offset="0%" style="stop-color:#FFD700;stop-opacity:1" />
      <stop offset="100%" style="stop-color:#DAA520;stop-opacity:1" />
    </radialGradient>
    <radialGradient id="face" cx="50%" cy="50%" r="60%">
      <stop offset="0%" style="stop-color:#D4A574;stop-opacity:1" />
      <stop offset="100%" style="stop-color:#8B4513;stop-opacity:1" />
    </radialGradient>
  </defs>
  
  <!-- Background circle -->
  <circle cx="16" cy="16" r="15" fill="url(#bg)" stroke="#B8860B" stroke-width="1"/>
  
  <!-- Character -->
  <!-- Traditional cap -->
  <ellipse cx="16" cy="11" rx="9" ry="5" fill="#FFD700"/>
  <ellipse cx="16" cy="10" rx="7" ry="3" fill="#FFFF99"/>
  <ellipse cx="16" cy="9" rx="5" ry="2" fill="#FFE135"/>
  
  <!-- Face -->
  <ellipse cx="16" cy="18" rx="7" ry="6" fill="url(#face)"/>
  
  <!-- Eyes -->
  <ellipse cx="13.5" cy="16" rx="1" ry="1.2" fill="#FFF"/>
  <ellipse cx="18.5" cy="16" rx="1" ry="1.2" fill="#FFF"/>
  <circle cx="13.5" cy="16" r="0.7" fill="#000"/>
  <circle cx="18.5" cy="16" r="0.7" fill="#000"/>
  
  <!-- Nose -->
  <ellipse cx="16" cy="18.5" rx="0.8" ry="1.2" fill="#654321"/>
  
  <!-- Beard -->
  <ellipse cx="16" cy="23" rx="5" ry="2.5" fill="#2F2F2F"/>
  <ellipse cx="16" cy="22.5" rx="4" ry="2" fill="#3F3F3F"/>
  
  <!-- Kurta (traditional shirt) -->
  <rect x="11" y="25" width="10" height="6" fill="#B8860B" rx="1"/>
  <rect x="11.5" y="25.5" width="9" height="5" fill="#DAA520" rx="0.5"/>
  
  <!-- Kurta buttons -->
  <circle cx="13.5" cy="27" r="0.6" fill="#FFD700"/>
  <circle cx="18.5" cy="27" r="0.6" fill="#FFD700"/>
  <circle cx="16" cy="28.5" r="0.6" fill="#FFD700"/>
  
  <!-- Subtle glow effect -->
  <circle cx="16" cy="16" r="14" fill="none" stroke="#FFE135" stroke-width="0.5" opacity="0.3"/>
</svg>